<svg width="12" height="12" viewBox="0 0 12 12" fill="none" xmlns="http://www.w3.org/2000/svg"><path fill-rule="evenodd" clip-rule="evenodd" d="M6.874.313c.967 0 1.75.783 1.75 1.75v1.312h2.602l.46 8.316-.873-.007-.415-7.434H1.601l-.415 7.434-.873.007.46-8.316h2.601V2.062c0-.966.784-1.75 1.75-1.75h1.75zm1.75 5.263v2.616c0 .955-.768 1.73-1.72 1.745h-1.78a1.748 1.748 0 0 1-1.75-1.716V5.576h.015a.875.875 0 0 1 .86.86v1.756c0 .476.384.863.86.87h1.765a.873.873 0 0 0 .875-.856V6.452c0-.48.384-.868.86-.876h.015zm-1.75-4.388h-1.75a.875.875 0 0 0-.875.875v1.312h3.5V2.062a.875.875 0 0 0-.875-.874z" fill="#fff" fill-opacity=".85"/></svg>